<svg xmlns="http://www.w3.org/2000/svg" xmlns:xlink="http://www.w3.org/1999/xlink" id="Layer_1" x="0" y="0" version="1.1" viewBox="0 0 125 125" xml:space="preserve" style="enable-background:new 0 0 100 100"><style type="text/css">.st0{fill:#8c8c8c}.st1{fill:#fff}</style><circle cx="50" cy="50" r="50" class="st0"/><g><path d="M45.5,60l-0.1-1.8c-0.4-3.7,0.8-7.7,4.2-11.9c3.1-3.6,4.8-6.3,4.8-9.4c0-3.5-2.2-5.8-6.5-5.9 c-2.5,0-5.2,0.8-6.9,2.1l-1.6-4.3c2.3-1.6,6.2-2.7,9.8-2.7c7.9,0,11.4,4.9,11.4,10.1c0,4.7-2.6,8-5.9,11.9c-3,3.6-4.1,6.6-3.9,10.1 l0.1,1.8H45.5z M44,69.6c0-2.5,1.7-4.3,4.1-4.3c2.4,0,4,1.8,4,4.3c0,2.4-1.6,4.3-4.1,4.3C45.7,73.9,44,72,44,69.6z" class="st1"/></g></svg>