<svg xmlns="http://www.w3.org/2000/svg" width="44.331" height="47.314" viewBox="0 0 44.331 47.314"><g id="Group_93" data-name="Group 93" transform="translate(-484.834 -492.451)"><path id="Path_71" fill="none" d="M1-297.37H45.331v-47.314H1Z" data-name="Path 71" transform="translate(483.834 837.135)"/><path id="Path_72" fill="#fff" d="M17.4-328.2h2.058v16.252H17.4Z" data-name="Path 72" transform="translate(485.646 838.956)"/><path id="Path_73" fill="#fff" d="M11.189-328.2h2.058v16.252H11.189Z" data-name="Path 73" transform="translate(484.96 838.956)"/><path id="Path_74" fill="#fff" d="M0,.737v7.1A1.106,1.106,0,0,0,1.028,8.862H41.143a1.106,1.106,0,0,0,1.028-1.028V.737a.99.99,0,0,0-.72-.926L21.394-6.669h-.617L.72-.189A.82.82,0,0,0,0,.737m1.954.72h0L20.983-4.715,40.011,1.456V6.805H1.954Z" data-name="Path 74" transform="translate(485.965 500.148)"/><path id="Path_75" fill="#fff" d="M22.674-328.2h2.058v16.252H22.674Z" data-name="Path 75" transform="translate(486.229 838.956)"/><path id="Path_76" fill="#fff" d="M6-328.2H8.059v16.354H6Z" data-name="Path 76" transform="translate(484.387 838.956)"/><path id="Path_77" fill="#fff" d="M.1.993H40.319A1.106,1.106,0,0,0,41.349-.036v-7.92a1.126,1.126,0,0,0-1.132-1.029H.1A1.106,1.106,0,0,0-.926-7.956v7.92A1.03,1.03,0,0,0,.1.993m1.028-7.92H39.189v.1h.1v5.76H1.234V-6.927Z" data-name="Path 77" transform="translate(486.789 537.744)"/><path id="Path_78" fill="#fff" d="M28.88-328.2h2.057v16.252H28.88Z" data-name="Path 78" transform="translate(486.915 838.956)"/><path id="Path_79" fill="#fff" d="M34.067-328.2h2.058v16.252H34.067Z" data-name="Path 79" transform="translate(487.487 838.956)"/></g></svg>